<?xml version="1.0" encoding="UTF-8"?>
<svg id="Layer_2" data-name="Layer 2" xmlns="http://www.w3.org/2000/svg" viewBox="0 0 541.83 541.83">
  <defs>
    <style>
      .cls-1 {
        fill: #834efe;
      }

      .cls-2 {
        fill: #ccc;
      }

      .cls-3 {
        fill: #9a6ffe;
      }

      .cls-4 {
        fill: #643bc1;
      }

      .cls-5 {
        fill: #b3b3b3;
      }
    </style>
  </defs>
  <g>
    <path class="cls-1" d="M141.44,364.49l-.1-.06V98.04c-35.28,20.5-64.78,37.64-67.92,39.46-.18.11-.28.16-.28.16v266.51l197.78,114.91h0s-197.78-114.91-197.78-114.91l68.3-39.68Z"/>
    <path class="cls-1" d="M270.92,289.26h0V22.75s-41.35,24.03-86.24,50.11v266.51l86.24-50.11Z"/>
  </g>
  <path class="cls-2" d="M357.16,72.86c-42.42-24.64-86.25-50.11-86.25-50.11l86.25,50.11h0Z"/>
  <path class="cls-2" d="M468.7,137.66s-37.38-21.72-68.2-39.62h0s68.2,39.62,68.2,39.62v266.51l-51.43,29.88c29.37-17.07,51.43-29.88,51.43-29.88V137.66Z"/>
  <path class="cls-5" d="M270.92,519.08l146.35-85.03c-58.58,34.03-146.28,84.99-146.35,85.03h0Z"/>
  <polygon class="cls-3" points="270.92 289.26 270.92 289.26 357.16 339.37 357.16 72.86 270.92 22.75 270.92 289.26 270.92 289.26"/>
  <polygon class="cls-3" points="400.4 364.49 468.7 404.17 468.7 137.66 400.5 98.04 400.5 364.43 400.4 364.49"/>
  <g>
    <polygon class="cls-4" points="357.16 339.49 357.16 339.37 270.92 289.26 184.67 339.37 184.67 339.49 270.92 389.6 357.16 339.49"/>
    <path class="cls-4" d="M400.4,364.49l-129.48,75.23-129.48-75.23-68.3,39.68,197.78,114.91c.07-.04,87.77-51,146.35-85.03l51.43-29.88-68.3-39.68Z"/>
    <polygon class="cls-4" points="400.4 364.49 400.4 364.49 468.7 404.17 400.4 364.49"/>
    <rect class="cls-4" x="314.04" y="264.44" width="0" height="99.74" transform="translate(-115.5 427.95) rotate(-59.84)"/>
  </g>
</svg>