<?xml version="1.0" encoding="UTF-8"?>
<svg id="Layer_2" data-name="Layer 2" xmlns="http://www.w3.org/2000/svg" viewBox="0 0 2083.61 521.09">
  <defs>
    <style>
      .cls-1 {
        fill: #834efe;
      }

      .cls-2 {
        fill: #ccc;
      }

      .cls-3 {
        fill: #9a6ffe;
      }

      .cls-4 {
        fill: #643bc1;
      }

      .cls-5 {
        fill: #fff;
      }

      .cls-6 {
        fill: #b3b3b3;
      }
    </style>
  </defs>
  <g>
    <g>
      <path class="cls-1" d="M130.77,337.04l-.08-.05V116.29c-29.23,16.98-53.67,31.18-56.27,32.69-.15.09-.23.13-.23.13v220.79l163.85,95.2h0s-163.85-95.2-163.85-95.2l56.58-32.87Z"/>
      <path class="cls-1" d="M238.04,274.72h0V53.92s-34.26,19.91-71.45,41.51v220.79l71.45-41.51Z"/>
    </g>
    <path class="cls-2" d="M309.49,95.44c-35.14-20.42-71.45-41.51-71.45-41.51l71.45,41.51h0Z"/>
    <path class="cls-2" d="M401.89,149.12s-30.97-17.99-56.5-32.83h0s56.5,32.83,56.5,32.83v220.79l-42.6,24.75c24.34-14.14,42.6-24.75,42.6-24.75v-220.79Z"/>
    <path class="cls-6" d="M238.04,465.11l121.24-70.44c-48.53,28.2-121.19,70.41-121.25,70.44h0Z"/>
    <polygon class="cls-3" points="238.04 274.72 238.04 274.71 309.49 316.23 309.49 95.44 238.04 53.92 238.04 274.71 238.04 274.72"/>
    <polygon class="cls-3" points="345.3 337.04 401.89 369.91 401.89 149.12 345.39 116.3 345.39 336.99 345.3 337.04"/>
    <g>
      <polygon class="cls-4" points="309.49 316.33 309.49 316.23 238.04 274.72 166.59 316.23 166.59 316.33 238.04 357.84 309.49 316.33"/>
      <path class="cls-4" d="M345.3,337.04l-107.27,62.32-107.27-62.32-56.58,32.87,163.85,95.2c.06-.03,72.72-42.25,121.25-70.44l42.6-24.75-56.58-32.87Z"/>
      <polygon class="cls-4" points="345.3 337.04 345.3 337.04 401.89 369.91 345.3 337.04"/>
      <rect class="cls-4" x="273.76" y="254.15" width="0" height="82.63" transform="translate(-119.25 383.75) rotate(-59.84)"/>
    </g>
  </g>
  <g>
    <path class="cls-5" d="M571.48,207.56h75.57v14.95h-57.88v32.32h55.47v15.11h-55.47v35.05h60.13v15.11h-77.82v-112.55Z"/>
    <path class="cls-5" d="M664.9,242.13h16.56v6.51c0,.59-.06,1.26-.16,2.01,0,.64-.05,1.45-.16,2.41,2.36-3.96,5.6-7.21,9.73-9.73,4.12-2.52,8.92-3.78,14.39-3.78,5.79,0,10.8,1.26,15.03,3.78,4.23,2.52,7.48,6.14,9.73,10.85,2.25,4.72,3.38,10.29,3.38,16.72v49.2h-16.72v-46.95c0-6.65-1.31-11.71-3.94-15.19-2.63-3.48-6.62-5.23-11.98-5.23-3.75,0-7.1.94-10.05,2.81-2.95,1.88-5.2,4.42-6.75,7.64-1.56,3.22-2.33,6.75-2.33,10.61v46.31h-16.72v-77.98Z"/>
    <path class="cls-5" d="M769.74,318.9c-3.54-1.66-6.3-4.29-8.28-7.88-1.98-3.59-2.97-8.23-2.97-13.91v-41.48h-16.08v-13.51h16.08v-26.85h16.72v26.85h17.69v13.51h-17.69v39.39c0,2.79.43,5.12,1.29,6.99.86,1.88,2.14,3.24,3.86,4.1,1.71.86,3.86,1.29,6.43,1.29,1.82,0,3.75-.16,5.79-.48v13.35c-1.18.32-2.71.59-4.58.8-1.88.21-3.78.32-5.71.32-4.82,0-9-.83-12.54-2.49Z"/>
    <path class="cls-5" d="M818.62,317.78c-5.79-3.27-10.29-8.01-13.51-14.23-3.22-6.22-4.82-13.77-4.82-22.67,0-7.93,1.63-15.03,4.9-21.3,3.27-6.27,7.8-11.17,13.59-14.71,5.79-3.54,12.27-5.31,19.46-5.31,7.72,0,14.34,1.72,19.86,5.15,5.52,3.43,9.73,8.28,12.62,14.55,2.89,6.27,4.34,13.59,4.34,21.95v3.54h-57.88c0,5.04.96,9.43,2.89,13.18,1.93,3.75,4.53,6.65,7.8,8.68,3.27,2.04,7,3.06,11.18,3.06,4.93,0,9.08-1.18,12.46-3.54,3.38-2.36,5.44-5.95,6.19-10.77h16.72c-.54,5.15-2.25,9.78-5.15,13.91-2.89,4.13-6.94,7.4-12.14,9.81-5.2,2.41-11.23,3.62-18.09,3.62-7.83,0-14.63-1.64-20.42-4.9ZM852.38,257.89c-3.43-3.75-8.15-5.63-14.15-5.63s-10.59,1.96-14.39,5.87c-3.81,3.91-5.98,8.82-6.51,14.71h40.36c-.11-6.22-1.88-11.2-5.31-14.95Z"/>
    <path class="cls-5" d="M890.01,242.13h16.72v4.66c0,3-.11,5.95-.32,8.84,2.14-4.82,5.23-8.71,9.25-11.66,4.02-2.95,8.82-4.42,14.39-4.42,1.5,0,2.79.11,3.86.32v16.24c-1.61-.32-3.27-.48-4.98-.48-4.61,0-8.58.86-11.9,2.57-3.32,1.72-5.87,4.4-7.64,8.04-1.77,3.65-2.65,8.26-2.65,13.83v40.04h-16.72v-77.98Z"/>
    <path class="cls-5" d="M944.51,242.13h16.72v4.66c0,1.93-.11,4.02-.32,6.27,2.46-3.96,5.92-7.21,10.37-9.73,4.45-2.52,9.51-3.78,15.19-3.78,7.08,0,13.27,1.8,18.57,5.39,5.31,3.59,9.38,8.52,12.22,14.79,2.84,6.27,4.26,13.43,4.26,21.47s-1.5,15.52-4.5,21.79c-3,6.27-7.21,11.12-12.62,14.55-5.41,3.43-11.55,5.15-18.41,5.15-5.9,0-10.88-1.18-14.95-3.54-4.08-2.36-7.45-5.63-10.13-9.81.21,2.47.32,4.77.32,6.91v36.98h-16.72v-111.11ZM994.04,306.04c3.32-2.41,5.89-5.76,7.72-10.05,1.82-4.29,2.73-9.27,2.73-14.95s-.88-10.34-2.65-14.63c-1.77-4.29-4.32-7.64-7.64-10.05-3.32-2.41-7.24-3.62-11.74-3.62s-8.09,1.15-11.42,3.46c-3.32,2.31-5.92,5.6-7.8,9.89-1.88,4.29-2.81,9.27-2.81,14.95s.94,10.67,2.81,14.95c1.87,4.29,4.47,7.64,7.8,10.05,3.32,2.41,7.13,3.62,11.42,3.62s8.25-1.21,11.58-3.62Z"/>
    <path class="cls-5" d="M1036.32,242.13h16.72v4.66c0,3-.11,5.95-.32,8.84,2.14-4.82,5.23-8.71,9.25-11.66,4.02-2.95,8.82-4.42,14.39-4.42,1.5,0,2.79.11,3.86.32v16.24c-1.61-.32-3.27-.48-4.98-.48-4.61,0-8.58.86-11.9,2.57-3.32,1.72-5.87,4.4-7.64,8.04-1.77,3.65-2.65,8.26-2.65,13.83v40.04h-16.72v-77.98Z"/>
    <path class="cls-5" d="M1090.03,210.29h18.17v18.49h-18.17v-18.49ZM1090.83,242.13h16.72v77.98h-16.72v-77.98ZM1090.83,242.13h8.36v13.51h-8.36v-13.51ZM1090.83,306.6h16.72v13.51h-16.72v-13.51Z"/>
    <path class="cls-5" d="M1137.86,319.15c-5.2-2.36-9.22-5.71-12.06-10.05-2.84-4.34-4.42-9.41-4.74-15.19h16.72c.21,5.04,1.9,9,5.06,11.9,3.16,2.89,7.58,4.34,13.26,4.34,4.82,0,8.74-1.05,11.74-3.14,3-2.09,4.5-4.85,4.5-8.28,0-2.89-1.07-5.2-3.22-6.91-2.15-1.71-5.47-3-9.97-3.86l-10.77-2.09c-7.83-1.5-13.88-4.18-18.17-8.04-4.29-3.86-6.43-8.84-6.43-14.95,0-4.39,1.31-8.36,3.94-11.9,2.62-3.54,6.3-6.32,11.01-8.36,4.72-2.04,10.08-3.06,16.08-3.06,6.65,0,12.38,1.07,17.21,3.22,4.82,2.15,8.57,5.15,11.25,9,2.68,3.86,4.12,8.47,4.34,13.83h-16.56c-.43-4.18-2.12-7.45-5.07-9.81-2.95-2.36-6.83-3.54-11.66-3.54-4.18,0-7.56.88-10.13,2.65-2.57,1.77-3.86,4.16-3.86,7.16,0,2.79.99,4.93,2.97,6.43,1.98,1.5,5.33,2.73,10.05,3.7l10.77,2.09c7.82,1.5,13.88,4.13,18.17,7.88,4.29,3.75,6.43,8.84,6.43,15.27,0,4.72-1.34,9-4.02,12.86-2.68,3.86-6.46,6.89-11.34,9.08-4.88,2.2-10.59,3.3-17.12,3.3-7.07,0-13.21-1.18-18.41-3.54Z"/>
    <path class="cls-5" d="M1217.21,317.78c-5.79-3.27-10.29-8.01-13.51-14.23-3.22-6.22-4.82-13.77-4.82-22.67,0-7.93,1.63-15.03,4.9-21.3,3.27-6.27,7.8-11.17,13.59-14.71,5.79-3.54,12.27-5.31,19.46-5.31,7.72,0,14.34,1.72,19.86,5.15,5.52,3.43,9.73,8.28,12.62,14.55,2.89,6.27,4.34,13.59,4.34,21.95v3.54h-57.88c0,5.04.96,9.43,2.89,13.18,1.93,3.75,4.53,6.65,7.8,8.68,3.27,2.04,7,3.06,11.18,3.06,4.93,0,9.08-1.18,12.46-3.54,3.38-2.36,5.44-5.95,6.19-10.77h16.72c-.54,5.15-2.25,9.78-5.15,13.91-2.89,4.13-6.94,7.4-12.14,9.81-5.2,2.41-11.23,3.62-18.09,3.62-7.83,0-14.63-1.64-20.42-4.9ZM1250.97,257.89c-3.43-3.75-8.15-5.63-14.15-5.63s-10.59,1.96-14.39,5.87c-3.81,3.91-5.98,8.82-6.51,14.71h40.36c-.11-6.22-1.88-11.2-5.31-14.95Z"/>
    <path class="cls-5" d="M1311.11,207.56h27.82l26.05,75.73c.75,2.04,1.39,3.99,1.93,5.87.54,1.88,1.02,3.67,1.45,5.39.54,1.07.91,2.25,1.13,3.54.43-1.71.91-3.75,1.45-6.11.43-1.5.86-2.92,1.29-4.26.43-1.34.96-2.81,1.61-4.42l26.05-75.73h27.33l-42.61,112.55h-31.68l-41.81-112.55Z"/>
    <path class="cls-5" d="M1432.98,208.68h24.28v21.71h-24.28v-21.71ZM1433.47,241.32h23.15v78.79h-23.15v-78.79ZM1433.47,241.32h11.42v18.17h-11.42v-18.17ZM1433.47,301.94h23.15v18.17h-23.15v-18.17Z"/>
    <path class="cls-5" d="M1485.32,319.31c-5.63-2.46-10-5.92-13.1-10.37-3.11-4.45-4.82-9.67-5.14-15.68h23.47c.21,3.97,1.53,7.13,3.94,9.49,2.41,2.36,5.87,3.54,10.37,3.54,3.75,0,6.73-.78,8.92-2.33,2.2-1.55,3.3-3.62,3.3-6.19,0-2.14-.86-3.8-2.57-4.98-1.72-1.18-4.5-2.14-8.36-2.89l-10.93-2.41c-8.15-1.5-14.42-4.26-18.81-8.28-4.4-4.02-6.59-9.3-6.59-15.84,0-4.72,1.39-8.95,4.18-12.7,2.79-3.75,6.75-6.67,11.9-8.76,5.15-2.09,11.04-3.14,17.69-3.14,7.18,0,13.43,1.1,18.73,3.3,5.31,2.2,9.43,5.36,12.38,9.49,2.95,4.13,4.53,8.87,4.74,14.23h-23.15c-.32-3.11-1.61-5.65-3.86-7.64-2.25-1.98-5.25-2.97-9-2.97-3.22,0-5.84.64-7.88,1.93-2.04,1.29-3.05,3.11-3.05,5.47,0,1.82.78,3.32,2.33,4.5,1.55,1.18,4.47,2.15,8.76,2.89l10.61,2.25c8.04,1.5,14.34,4.21,18.89,8.12,4.55,3.91,6.83,9.3,6.83,16.16,0,5.15-1.45,9.73-4.34,13.75-2.89,4.02-6.99,7.16-12.3,9.41-5.31,2.25-11.44,3.38-18.41,3.38-7.4,0-13.91-1.23-19.54-3.7Z"/>
    <path class="cls-5" d="M1564.59,319.39c-4.24-2.41-7.58-6-10.05-10.77-2.47-4.77-3.7-10.48-3.7-17.12v-50.17h23.48v46.63c0,5.15,1.07,9.19,3.22,12.14,2.14,2.95,5.31,4.42,9.49,4.42,2.79,0,5.33-.67,7.64-2.01,2.3-1.34,4.1-3.27,5.39-5.79,1.29-2.52,1.93-5.49,1.93-8.92v-46.47h23.31v78.79h-23.15v-2.89c0-1.93.11-3.75.32-5.47,0-.54.11-1.07.32-1.61-2.36,4.07-5.44,7.24-9.25,9.49-3.81,2.25-8.66,3.38-14.55,3.38-5.36,0-10.16-1.21-14.39-3.62Z"/>
    <path class="cls-5" d="M1651.09,319.95c-4.24-2.04-7.64-4.93-10.21-8.68-2.57-3.75-3.86-8.15-3.86-13.19,0-8.36,2.81-14.47,8.44-18.33,5.63-3.86,13.26-6.43,22.91-7.72l11.09-1.29c3-.43,5.15-1.13,6.43-2.09s1.93-2.41,1.93-4.34c0-2.57-1.02-4.72-3.06-6.43-2.04-1.71-4.82-2.57-8.36-2.57-3.86,0-7.05,1.02-9.57,3.05-2.52,2.04-3.94,4.88-4.26,8.52h-23.64c.43-5.57,2.2-10.48,5.31-14.71,3.11-4.23,7.37-7.53,12.78-9.89,5.41-2.36,11.6-3.54,18.57-3.54,8.15,0,14.79,1.37,19.94,4.1,5.14,2.73,8.95,6.67,11.42,11.82,2.46,5.15,3.7,11.47,3.7,18.97v46.47h-21.71v-2.73c0-1.29.05-2.73.16-4.34.32-.96.48-1.93.48-2.89-2.25,3.97-5.47,7.1-9.65,9.41-4.18,2.3-9.33,3.46-15.44,3.46-4.72,0-9.19-1.02-13.43-3.05ZM1680.03,304.27c2.52-1.45,4.53-3.43,6.03-5.95,1.5-2.52,2.25-5.39,2.25-8.6v-7.24c-.75.64-1.82,1.18-3.22,1.61-1.39.43-3.27.91-5.63,1.45l-5.63.96c-4.18.75-7.42,1.96-9.73,3.62-2.31,1.66-3.46,3.89-3.46,6.67,0,3,1.02,5.36,3.05,7.07,2.04,1.72,4.72,2.57,8.04,2.57,3,0,5.76-.72,8.28-2.17Z"/>
    <path class="cls-5" d="M1725.45,207.56h23.15v112.55h-23.15v-112.55ZM1725.45,207.56h11.58v18.17h-11.58v-18.17ZM1725.45,301.94h23.15v18.17h-23.15v-18.17Z"/>
    <path class="cls-5" d="M1763.88,208.68h24.28v21.71h-24.28v-21.71ZM1764.36,241.32h23.15v78.79h-23.15v-78.79ZM1764.36,241.32h11.42v18.17h-11.42v-18.17ZM1764.36,301.94h23.15v18.17h-23.15v-18.17Z"/>
    <path class="cls-5" d="M1798.93,300.49l36.18-35.53c1.82-1.61,4.07-3.48,6.75-5.63h-41v-18.01h65.92v20.1l-36.02,35.21c-2.15,2.25-4.24,4.07-6.27,5.47h44.22v18.01h-69.78v-19.62Z"/>
    <path class="cls-5" d="M1894.6,318.1c-6.22-3.27-11.07-8.12-14.55-14.55-3.48-6.43-5.23-14.04-5.23-22.83s1.69-15.86,5.07-22.19c3.38-6.32,8.14-11.2,14.31-14.63,6.16-3.43,13.21-5.15,21.14-5.15s15.03,1.74,20.98,5.23c5.95,3.48,10.45,8.47,13.51,14.95,3.05,6.49,4.58,14.07,4.58,22.75v4.5h-55.96c-.11,3.54.64,6.78,2.25,9.73,1.61,2.95,3.72,5.25,6.35,6.91,2.62,1.66,5.6,2.49,8.92,2.49,3.75,0,6.97-.99,9.65-2.97,2.68-1.98,4.29-4.74,4.82-8.28h23.64c-.64,5.47-2.63,10.4-5.95,14.79-3.32,4.4-7.75,7.85-13.27,10.37-5.52,2.52-11.93,3.78-19.21,3.78-7.83,0-14.85-1.64-21.06-4.9ZM1926.2,259.57c-2.84-2.84-6.51-4.26-11.01-4.26s-8.47,1.45-11.58,4.34c-3.11,2.89-4.93,6.65-5.47,11.25h32.48c-.11-4.72-1.58-8.49-4.42-11.34Z"/>
    <path class="cls-5" d="M1966.47,241.32h23.15v5.47c0,3-.27,5.74-.8,8.2,2.36-4.93,5.44-8.87,9.25-11.82,3.8-2.95,8.39-4.42,13.75-4.42,1.61,0,3,.11,4.18.32v22.51c-1.72-.43-3.65-.64-5.79-.64-4.08,0-7.64.75-10.69,2.25-3.05,1.5-5.47,3.94-7.24,7.32s-2.65,7.8-2.65,13.27v36.34h-23.15v-78.79Z"/>
  </g>
</svg>